<svg width="22" height="22" viewBox="0 0 22 22" fill="none" xmlns="http://www.w3.org/2000/svg">
<path d="M20.0621 5.07468C19.9843 4.92658 19.8676 4.80255 19.7244 4.71596C19.5813 4.62937 19.4173 4.58352 19.25 4.58334H2.74997C2.583 4.58403 2.41937 4.63023 2.27668 4.71696C2.13399 4.80369 2.01765 4.92768 1.94016 5.07559C1.86267 5.2235 1.82697 5.38973 1.83689 5.55641C1.84681 5.7231 1.90198 5.88392 1.99647 6.02159L10.2465 17.9383C10.3306 18.0604 10.4431 18.1603 10.5744 18.2293C10.7056 18.2982 10.8517 18.3343 11 18.3343C11.1483 18.3343 11.2943 18.2982 11.4256 18.2293C11.5569 18.1603 11.6694 18.0604 11.7535 17.9383L20.0035 6.02159C20.0989 5.8842 20.1548 5.72328 20.1651 5.55633C20.1755 5.38938 20.1399 5.22279 20.0621 5.07468ZM11 15.8061L4.49897 6.41668H17.501L11 15.8061Z" fill="black"/>
</svg>
