<svg width="19" height="24" viewBox="0 0 19 24" fill="none" xmlns="http://www.w3.org/2000/svg">
<g clip-path="url(#clip0_26_2)">
<path d="M9.76759 8.47275V6.73359C10.5623 7.07254 11.2559 7.06204 12.0127 6.73359V8.47275C12.0127 9.16617 9.76759 9.16617 9.76759 8.47275V8.47275ZM9.40806 8.47275V6.42454L8.53018 4.40958L3.34675 7.29089V15.6433L0.00408936 17.3147V19.8217L7.52509 24L18.426 18.1503V7.29089L13.2325 4.4287L12.3722 6.42454V8.47275C12.3722 9.66586 9.40806 9.66586 9.40806 8.47275V8.47275ZM9.66489 6.06347L7.86503 2.04478C7.084 0.959998 8.29937 0.0445288 10.6986 0.00102877C12.2305 -0.0266744 14.7077 0.486466 14.026 1.83961L12.1154 6.06389C11.729 6.75979 10.03 6.86967 9.66489 6.06347ZM10.8129 0.287201C9.37468 0.287201 7.92451 0.793263 7.84173 1.41637C8.18996 2.89978 13.5357 2.93301 13.8394 1.41637C13.8476 0.702185 12.2691 0.287154 10.8129 0.287154V0.287201ZM11.6175 16.8564L11.6065 14.7901C10.5045 14.8553 11.2847 12.8113 12.2308 13.2433L13.6948 11.6742C13.2713 10.4738 15.122 9.69647 15.0705 11.0334L16.5069 11.3041C17.3467 10.0378 18.3501 11.3757 17.203 12.2709L17.2472 14.0885C18.3638 14.0024 17.5283 16.0073 16.6947 15.6465L15.2196 17.4144C15.4262 18.013 14.9782 18.5867 14.5457 18.7376C14.1749 18.867 13.8125 18.6801 13.9158 17.9945L12.3413 17.7735C11.4907 19.1363 10.4371 17.7512 11.6175 16.8564V16.8564ZM16.645 14.536L14.6174 11.7958C14.5125 11.8676 14.3964 11.9228 14.286 11.945L12.2639 16.7901C12.3413 16.8453 12.3965 16.9227 12.4297 17.0166L16.4406 15.0277C16.4727 14.8574 16.5437 14.694 16.645 14.536V14.536ZM16.3688 11.6135L14.9821 11.3538C14.9507 11.4299 14.9079 11.5007 14.855 11.5638L16.8715 14.2874C16.8885 14.271 16.907 14.2562 16.9268 14.2432L16.8826 12.409C16.44 12.4705 16.2344 12.0522 16.3688 11.6135V11.6135ZM11.9269 14.6575L11.9379 16.7072L13.9296 11.909L12.4241 13.514C12.5355 13.938 12.2843 14.4288 11.9269 14.6576L11.9269 14.6575ZM14.96 17.1824L16.4572 15.3896L12.4683 17.3702L12.4517 17.4531L14.0263 17.674C14.2739 17.2725 14.6664 17.0686 14.96 17.1823V17.1824ZM9.06071 19.6265V19.9998L6.75676 21.1998L1.21248 18.1456V17.7723L3.51643 16.5723L9.06071 19.6266V19.6265ZM4.29268 14.9688V8.99189L9.88361 12.1395V18.1164L4.29268 14.9688Z" fill="currentColor"/>
</g>
<defs>
<clipPath id="clip0_26_2">
<rect width="18.43" height="24" fill="none"/>
</clipPath>
</defs>
</svg>
