<svg width="39" height="39" viewBox="0 0 39 39" fill="none" xmlns="http://www.w3.org/2000/svg">
<g clip-path="url(#clip0_3_140)">
<path d="M25.35 19.5C25.35 21.0515 24.7337 22.5395 23.6366 23.6366C22.5395 24.7337 21.0515 25.35 19.5 25.35C17.9485 25.35 16.4605 24.7337 15.3635 23.6366C14.2664 22.5395 13.65 21.0515 13.65 19.5C13.65 19.1666 13.6851 18.8409 13.7456 18.525H11.7V26.3192C11.7 26.8613 12.1388 27.3 12.6809 27.3H26.3211C26.5809 27.2995 26.8299 27.1959 27.0134 27.0121C27.197 26.8282 27.3 26.579 27.3 26.3192V18.525H25.2545C25.3149 18.8409 25.35 19.1666 25.35 19.5V19.5ZM19.5 23.4C20.0123 23.3999 20.5196 23.2989 20.9928 23.1027C21.466 22.9066 21.896 22.6191 22.2582 22.2568C22.6203 21.8944 22.9075 21.4643 23.1035 20.991C23.2994 20.5177 23.4002 20.0104 23.4 19.4981C23.3999 18.9858 23.2989 18.4786 23.1027 18.0053C22.9066 17.5321 22.6191 17.1021 22.2568 16.74C21.8944 16.3778 21.4643 16.0906 20.991 15.8947C20.5177 15.6987 20.0104 15.598 19.4981 15.5981C18.4635 15.5983 17.4714 16.0096 16.74 16.7413C16.0086 17.4731 15.5978 18.4654 15.5981 19.5C15.5983 20.5346 16.0096 21.5268 16.7413 22.2582C17.4731 22.9895 18.4654 23.4003 19.5 23.4V23.4ZM24.18 15.405H26.5181C26.6734 15.405 26.8224 15.3435 26.9324 15.2338C27.0424 15.1242 27.1045 14.9754 27.105 14.82V12.482C27.105 12.3263 27.0432 12.177 26.9331 12.0669C26.823 11.9569 26.6737 11.895 26.5181 11.895H24.18C24.0244 11.895 23.8751 11.9569 23.765 12.0669C23.6549 12.177 23.5931 12.3263 23.5931 12.482V14.82C23.595 15.1418 23.8583 15.405 24.18 15.405V15.405ZM19.5 0.780029C14.5352 0.780029 9.77367 2.75231 6.26299 6.26299C2.75231 9.77367 0.780029 14.5352 0.780029 19.5C0.780029 24.4649 2.75231 29.2264 6.26299 32.7371C9.77367 36.2478 14.5352 38.22 19.5 38.22C21.9584 38.22 24.3927 37.7358 26.6639 36.7951C28.9351 35.8543 30.9988 34.4754 32.7371 32.7371C34.4754 30.9988 35.8543 28.9351 36.7951 26.6639C37.7358 24.3927 38.22 21.9584 38.22 19.5C38.22 17.0417 37.7358 14.6074 36.7951 12.3362C35.8543 10.065 34.4754 8.0013 32.7371 6.26299C30.9988 4.52468 28.9351 3.14577 26.6639 2.205C24.3927 1.26424 21.9584 0.780029 19.5 0.780029V0.780029ZM29.25 27.0836C29.25 28.275 28.275 29.25 27.0836 29.25H11.9165C10.725 29.25 9.75003 28.275 9.75003 27.0836V11.9165C9.75003 10.725 10.725 9.75003 11.9165 9.75003H27.0836C28.275 9.75003 29.25 10.725 29.25 11.9165V27.0836V27.0836Z" fill="white"/>
</g>
<defs>
<clipPath id="clip0_3_140">
<rect width="39" height="39" fill="white"/>
</clipPath>
</defs>
</svg>
