<svg width="24" height="24" viewBox="0 0 24 24" fill="none" xmlns="http://www.w3.org/2000/svg">
<path d="M20.9367 6.87422L17.1258 3.06328C16.8445 2.78203 16.4625 2.625 16.0641 2.625H3.375C2.96016 2.625 2.625 2.96016 2.625 3.375V20.625C2.625 21.0398 2.96016 21.375 3.375 21.375H20.625C21.0398 21.375 21.375 21.0398 21.375 20.625V7.93359C21.375 7.53516 21.218 7.15547 20.9367 6.87422ZM9 4.125H15V6.75H9V4.125ZM12 17.1094C10.1367 17.1094 8.625 15.5977 8.625 13.7344C8.625 11.8711 10.1367 10.3594 12 10.3594C13.8633 10.3594 15.375 11.8711 15.375 13.7344C15.375 15.5977 13.8633 17.1094 12 17.1094ZM12 11.8594C10.9641 11.8594 10.125 12.6984 10.125 13.7344C10.125 14.7703 10.9641 15.6094 12 15.6094C13.0359 15.6094 13.875 14.7703 13.875 13.7344C13.875 12.6984 13.0359 11.8594 12 11.8594Z" fill="black"/>
</svg>
