<svg width="25" height="24" viewBox="0 0 25 24" fill="none" xmlns="http://www.w3.org/2000/svg">
<path d="M20.7804 5.73515C20.7733 5.72812 19.3483 7.13671 16.5124 9.96796L14.5226 7.97812L18.7624 3.73828C16.5312 2.39531 13.6647 2.73984 11.8062 4.59843C11.0957 5.30849 10.5844 6.19286 10.3236 7.16287C10.0628 8.13287 10.0616 9.1544 10.3202 10.125L10.3624 10.282L3.71787 16.9242C3.57256 17.0695 3.57256 17.3086 3.71787 17.4539L7.03193 20.768C7.17725 20.9133 7.41631 20.9133 7.56162 20.768L14.2015 14.1281L14.3585 14.1703C16.3202 14.693 18.4272 14.1492 19.8897 12.6867C21.7507 10.8281 22.0952 7.96171 20.7804 5.73515Z" fill="black"/>
</svg>
