<svg width="39" height="39" viewBox="0 0 39 39" fill="none" xmlns="http://www.w3.org/2000/svg">
<path d="M19.5 2.4375C10.0775 2.4375 2.4375 10.0775 2.4375 19.5C2.4375 28.9225 10.0775 36.5625 19.5 36.5625C28.9225 36.5625 36.5625 28.9225 36.5625 19.5C36.5625 10.0775 28.9225 2.4375 19.5 2.4375ZM27.6999 15.2991C27.7113 15.4781 27.7113 15.6647 27.7113 15.8476C27.7113 21.4386 23.4533 27.8789 15.6724 27.8789C13.2729 27.8789 11.0487 27.1819 9.1749 25.9822C9.51768 26.0203 9.84522 26.0355 10.1956 26.0355C12.1761 26.0355 13.9966 25.3652 15.4477 24.2303C13.5891 24.1922 12.0275 22.9734 11.4943 21.2977C12.1456 21.3929 12.7321 21.3929 13.4024 21.2215C12.4454 21.0271 11.5853 20.5073 10.9681 19.7505C10.3508 18.9938 10.0146 18.0467 10.0166 17.0701V17.0168C10.5765 17.3329 11.2354 17.5271 11.9247 17.5538C11.3452 17.1676 10.8699 16.6444 10.5411 16.0305C10.2122 15.4166 10.0399 14.7311 10.0395 14.0347C10.0395 13.2463 10.2451 12.5265 10.6146 11.9019C11.6768 13.2095 13.0023 14.279 14.5049 15.0408C16.0075 15.8026 17.6536 16.2397 19.3362 16.3236C18.7383 13.4481 20.8863 11.1211 23.4686 11.1211C24.6873 11.1211 25.7842 11.6314 26.5573 12.4541C27.5133 12.2751 28.4273 11.9171 29.2424 11.4372C28.9263 12.416 28.2636 13.2425 27.3838 13.7643C28.2369 13.6729 29.0596 13.4367 29.8213 13.1054C29.2462 13.9509 28.5264 14.7012 27.6999 15.2991V15.2991Z" fill="white"/>
</svg>
