<svg width="245" height="245" viewBox="0 0 245 245" fill="none" xmlns="http://www.w3.org/2000/svg">
<g clip-path="url(#clip0_3_65)">
<path d="M177.212 51.0819C161.935 37.9084 142.451 30.6329 122.278 30.5696C81.1622 30.5696 47.0312 61.1393 43.317 100.559C18.9835 103.998 -0.0002676 124.373 -0.000269786 149.379C-0.000272186 176.83 22.8964 198.703 50.6384 198.703L186.765 198.703C218.451 198.703 244.557 173.727 244.557 142.424C244.557 115.477 225.207 93.161 199.589 87.5057C197.403 74.3148 188.92 61.1699 177.212 51.0819V51.0819ZM167.231 62.6525C178.802 72.6335 184.855 84.6627 184.855 94.0781L184.855 100.926L191.656 101.675C213.009 104.013 229.272 121.545 229.272 142.424C229.272 164.847 210.472 183.418 186.765 183.418L50.6384 183.418C30.8751 183.418 15.2846 167.95 15.2846 149.379C15.2846 130.792 30.8751 115.324 50.6384 115.324L58.2808 115.324L58.2808 107.682C58.2655 73.7493 86.6953 45.8545 122.278 45.8545C138.788 45.9204 154.731 51.8833 167.231 62.6678L167.231 62.6525Z" fill="black"/>
<path d="M122.297 58.1193C90.8888 58.1193 65.422 83.5861 65.422 114.994C65.422 146.402 90.8888 171.869 122.297 171.869C153.705 171.869 179.172 146.402 179.172 114.994C179.172 83.5861 153.705 58.1193 122.297 58.1193ZM122.297 162.221C96.2208 162.221 75.0704 141.07 75.0704 114.994C75.0704 88.9181 96.2208 67.7677 122.297 67.7677C148.373 67.7677 169.524 88.9181 169.524 114.994C169.524 141.07 148.373 162.221 122.297 162.221Z" fill="black"/>
<path d="M144.476 131.067L126.372 117.978L126.372 86.5568C126.372 85.9982 125.915 85.5412 125.357 85.5412L119.25 85.5412C118.692 85.5412 118.234 85.9982 118.234 86.5568L118.234 121.52C118.234 121.85 118.387 122.154 118.653 122.345L139.651 137.655C140.109 137.986 140.743 137.884 141.073 137.44L144.704 132.488C145.034 132.019 144.933 131.384 144.476 131.067V131.067Z" fill="black"/>
</g>
<defs>
<clipPath id="clip0_3_65">
<rect width="244.557" height="244.557" fill="white" transform="matrix(-1 -8.74228e-08 -8.74228e-08 1 244.557 -3.05176e-05)"/>
</clipPath>
</defs>
</svg>
