<svg width="92" height="74" viewBox="0 0 92 74" fill="none" xmlns="http://www.w3.org/2000/svg">
<path d="M40.3123 13.0723L47.0224 13.0149L53.7324 12.9576C55.7242 12.9398 56.9223 15.1602 55.8133 16.8138L54.4896 18.7934L56.8709 18.7738C58.8627 18.7561 60.0608 20.9764 58.9518 22.63L57.6281 24.6097L60.0094 24.5901C62.0012 24.5723 63.1994 26.7927 62.0903 28.4463L54.6271 39.6003C54.3277 40.048 53.9235 40.4156 53.4495 40.6713C52.9756 40.9271 52.4464 41.0631 51.908 41.0676L38.4878 41.1824C36.4961 41.2001 35.2987 38.9812 36.407 37.3262L37.7321 35.3457L35.3493 35.3661C33.3575 35.3839 32.1602 33.165 33.2685 31.5099L34.5936 29.5295L32.2108 29.5498C30.219 29.5676 29.0217 27.3487 30.13 25.6936L37.5932 14.5396C37.8926 14.092 38.2968 13.7243 38.7707 13.4686C39.2446 13.2129 39.7738 13.0768 40.3123 13.0723ZM55.4038 27.9333L51.4885 33.7841C51.1892 34.2317 50.7849 34.5993 50.311 34.8551C49.8371 35.1108 49.3079 35.2468 48.7694 35.2513L41.7306 35.3134L40.0226 37.8647L51.8803 37.7632L58.4762 27.907L55.4038 27.9333ZM52.2653 22.1171L48.3508 27.9693C48.0792 28.3749 47.7211 28.7152 47.3022 28.9659C46.8834 29.2166 46.4142 29.3714 45.9284 29.4191L45.6317 29.4365L38.5913 29.4957L36.8849 32.0499L48.741 31.9455L55.3376 22.0907L52.2653 22.1171ZM40.34 16.3768L33.7456 26.2322L45.6033 26.1306L52.1991 16.2744L40.34 16.3768Z" fill="#1F1F1F"/>
<path d="M3.83224 62.1542H0.905762V57.9905L6.75872 58.9034L11.9931 57.9905V62.1542H9.06659V73.8601H3.83224V62.1542ZM6.75872 71.9567V60.4649H10.161V59.8939H2.73778V60.4649H6.14011V71.9567H6.75872Z" fill="#1F1F1F"/>
<path d="M12.4866 56.0871H17.8637L17.1651 64.0219L17.8637 71.9567H12.4866L13.1651 64.0219L12.4866 56.0871ZM15.4844 70.0533V57.9905H14.8658V70.0533H15.4844Z" fill="#1F1F1F"/>
<path d="M19.8619 57.9905H24.0494L28.1893 64.0813L32.3054 57.9905H36.4929V73.8601H31.4251V68.1499L28.1893 72.9084L24.9297 68.1499V73.8601H19.8619V57.9905ZM22.8598 71.9567V61.0359L28.1893 68.7923L33.495 61.0359V71.9567H34.1136V59.8939H33.495L28.1893 67.7216L22.8598 59.8939H22.2412V71.9567H22.8598Z" fill="#1F1F1F"/>
<path d="M38.1478 55.1304H47.4982V59.2941H43.2156V61.0547H47.4268V65.0043H43.2156V66.8363H47.6648V71H38.1478V55.1304ZM45.9041 69.0966V68.5256H41.1456V63.315H45.6662V62.744H41.1456V57.6048H45.9041V57.0338H40.527V69.0966H45.9041Z" fill="#1F1F1F"/>
<path d="M49.0914 57.9905H54.3733V69.6964H58.7511V73.8601H49.0914V57.9905ZM57.4188 71.9567V71.3857H52.0892V59.8939H51.4706V65.9253V71.9567H57.4188Z" fill="#1F1F1F"/>
<path d="M59.5936 55.1304H64.9707V71H59.5936V62.744V55.1304ZM62.5914 69.0966V57.0338H61.9728V69.0966H62.5914Z" fill="#1F1F1F"/>
<path d="M66.6337 57.9905H70.7974L75.1752 64.1051V57.9905H80.1479V73.8601H75.9604L71.6063 67.7692V73.8601H66.6337V57.9905ZM69.465 71.9567V60.9645L77.3166 71.9567H77.9352V59.8939H77.3166V70.886L69.465 59.8939H68.8464V71.9567H69.465Z" fill="#1F1F1F"/>
<path d="M81.8061 55.1304H91.1565V59.2941H86.8739V61.0547H91.0852V65.0043H86.8739V66.8363H91.3231V71H81.8061V55.1304ZM89.5624 69.0966V68.5256H84.8039V63.315H89.3245V62.744H84.8039V57.6048H89.5624V57.0338H84.1853V69.0966H89.5624Z" fill="#1F1F1F"/>
</svg>
