<svg width="127" height="123" viewBox="0 0 127 123" fill="none" xmlns="http://www.w3.org/2000/svg">
<g clip-path="url(#clip0_3_29)">
<path d="M61.2269 17.74L74.647 17.6252C76.6388 17.6074 77.8369 19.8278 76.7278 21.4814L75.4042 23.461L77.7855 23.4415C79.7773 23.4237 80.9754 25.644 79.8664 27.2976L78.5427 29.2773L80.924 29.2577C82.9158 29.24 84.1139 31.4603 83.0049 33.1139L75.5416 44.268C75.2423 44.7156 74.838 45.0832 74.3641 45.339C73.8902 45.5947 73.361 45.7307 72.8225 45.7352L59.4024 45.85C57.4106 45.8678 56.2133 43.6489 57.3216 41.9938L58.6467 40.0134L56.2639 40.0337C54.2721 40.0515 53.0748 37.8326 54.1831 36.1775L55.5082 34.1971L53.1254 34.2174C51.1336 34.2352 49.9363 32.0163 51.0446 30.3613L58.5078 19.2072C58.8072 18.7596 59.2114 18.3919 59.6853 18.1362C60.1592 17.8805 60.6884 17.7445 61.2269 17.74V17.74ZM76.3184 32.601L72.4031 38.4517C72.1038 38.8993 71.6995 39.267 71.2256 39.5227C70.7517 39.7784 70.2225 39.9144 69.684 39.9189L62.6451 39.981L60.9372 42.5323L72.7949 42.4308L79.3907 32.5746L76.3184 32.601ZM73.1799 26.7847L69.2654 32.6369C68.9938 33.0425 68.6357 33.3828 68.2168 33.6335C67.7979 33.8842 67.3288 34.039 66.8429 34.0867L66.5463 34.1041L59.5058 34.1633L57.7994 36.7175L69.6556 36.6131L76.2522 26.7583L73.1799 26.7847ZM61.2546 21.0444L54.6601 30.8998L66.5178 30.7983L73.1137 20.9421L61.2546 21.0444Z" fill="#1F1F1F"/>
</g>
<path d="M24.747 64.9184H21.8206V60.7547H32.9079V64.9184H29.9814V76.6243H24.747V64.9184ZM27.6735 74.7209V63.2291H31.0758V62.6581H23.6526V63.2291H27.0549V74.7209H27.6735ZM33.7363 60.7547H39.1134V76.6243H33.7363V60.7547ZM36.7342 74.7209V62.6581H36.1156V74.7209H36.7342ZM40.7765 60.7547H44.964L49.1039 66.8456L53.22 60.7547H57.4075V76.6243H52.3397V70.9141L49.1039 75.6726L45.8443 70.9141V76.6243H40.7765V60.7547ZM43.7743 74.7209V63.8001L49.1039 71.5565L54.4096 63.8001V74.7209H55.0282V62.6581H54.4096L49.1039 70.4858L43.7743 62.6581H43.1557V74.7209H43.7743ZM59.0623 60.7547H68.4128V64.9184H64.1301V66.679H68.3414V70.6286H64.1301V72.4606H68.5793V76.6243H59.0623V60.7547ZM66.8187 74.7209V74.1499H62.0602V68.9393H66.5808V68.3683H62.0602V63.2291H66.8187V62.6581H61.4416V74.7209H66.8187ZM70.006 60.7547H75.2879V72.4606H79.6657V76.6243H70.006V60.7547ZM78.3333 74.7209V74.1499H73.0038V62.6581H72.3852V74.7209H78.3333ZM80.5081 60.7547H85.8852V76.6243H80.5081V60.7547ZM83.506 74.7209V62.6581H82.8874V74.7209H83.506ZM87.5483 60.7547H91.712L96.0898 66.8694V60.7547H101.062V76.6243H96.8749L92.5209 70.5334V76.6243H87.5483V60.7547ZM90.3796 74.7209V63.7288L98.2311 74.7209H98.8497V62.6581H98.2311V73.6502L90.3796 62.6581H89.761V74.7209H90.3796ZM102.721 60.7547H112.071V64.9184H107.788V66.679H112V70.6286H107.788V72.4606H112.238V76.6243H102.721V60.7547ZM110.477 74.7209V74.1499H105.719V68.9393H110.239V68.3683H105.719V63.2291H110.477V62.6581H105.1V74.7209H110.477Z" fill="#1F1F1F"/>
<defs>
<clipPath id="clip0_3_29">
<rect width="39.6542" height="39.6542" fill="white" transform="translate(40.1604 23.7043) rotate(-28.3517)"/>
</clipPath>
</defs>
</svg>
